<?xml version="1.0" encoding="UTF-8" standalone="no" ?>
<!DOCTYPE svg PUBLIC "-//W3C//DTD SVG 1.1//EN" "http://www.w3.org/Graphics/SVG/1.1/DTD/svg11.dtd">
<svg xmlns="http://www.w3.org/2000/svg" xmlns:xlink="http://www.w3.org/1999/xlink" version="1.1" width="115" height="115" viewBox="0 0 115 115" xml:space="preserve">
<g transform="matrix(1 0 0 1 57.5 57.5)" id="0eadb55d-cc04-425e-b049-be3fcaac5dd6"  >
<rect style="stroke: none; stroke-width: 1; stroke-dasharray: none; stroke-linecap: butt; stroke-dashoffset: 0; stroke-linejoin: miter; stroke-miterlimit: 4; fill: rgb(159,50,50); fill-rule: nonzero; opacity: 1; visibility: hidden;" vector-effect="non-scaling-stroke"  x="-57.5" y="-57.5" rx="0" ry="0" width="115" height="115" />
</g>
<g transform="matrix(Infinity NaN NaN Infinity 0 0)" id="2213d9ab-9b5b-4c96-8435-02677015ea0e"  >
</g>
<g transform="matrix(1.12 0 0 1.06 57.5 57.5)"  >
<g style="" vector-effect="non-scaling-stroke"   >
		<g transform="matrix(1.54 0 0 1.54 -28.28 -24.43)"  >
<polygon style="stroke: none; stroke-width: 1; stroke-dasharray: none; stroke-linecap: butt; stroke-dashoffset: 0; stroke-linejoin: miter; stroke-miterlimit: 4; fill: rgb(0,173,181); fill-rule: nonzero; opacity: 1;" vector-effect="non-scaling-stroke"  points="14.12,8.47 -8.47,-14.12 -14.12,-8.47 8.47,14.12 14.12,14.12 " />
</g>
		<g transform="matrix(1.54 0 0 1.54 13.08 -8.98)"  >
<rect style="stroke: none; stroke-width: 1; stroke-dasharray: none; stroke-linecap: butt; stroke-dashoffset: 0; stroke-linejoin: miter; stroke-miterlimit: 4; fill: rgb(0,173,181); fill-rule: nonzero; opacity: 1;" vector-effect="non-scaling-stroke"  x="-9" y="-2.5" rx="0" ry="0" width="18" height="5" />
</g>
		<g transform="matrix(1.54 0 0 1.54 5.38 8.97)"  >
<rect style="stroke: none; stroke-width: 1; stroke-dasharray: none; stroke-linecap: butt; stroke-dashoffset: 0; stroke-linejoin: miter; stroke-miterlimit: 4; fill: rgb(0,173,181); fill-rule: nonzero; opacity: 1;" vector-effect="non-scaling-stroke"  x="-14" y="-2.5" rx="0" ry="0" width="28" height="5" />
</g>
		<g transform="matrix(1.54 0 0 1.54 13.08 -26.92)"  >
<rect style="stroke: none; stroke-width: 1; stroke-dasharray: none; stroke-linecap: butt; stroke-dashoffset: 0; stroke-linejoin: miter; stroke-miterlimit: 4; fill: rgb(0,173,181); fill-rule: nonzero; opacity: 1;" vector-effect="non-scaling-stroke"  x="-9" y="-2.5" rx="0" ry="0" width="18" height="5" />
</g>
		<g transform="matrix(1.54 0 0 1.54 5.38 26.92)"  >
<rect style="stroke: none; stroke-width: 1; stroke-dasharray: none; stroke-linecap: butt; stroke-dashoffset: 0; stroke-linejoin: miter; stroke-miterlimit: 4; fill: rgb(0,173,181); fill-rule: nonzero; opacity: 1;" vector-effect="non-scaling-stroke"  x="-14" y="-2.5" rx="0" ry="0" width="28" height="5" />
</g>
		<g transform="matrix(1.54 0 0 1.54 5.77 0)"  >
<path style="stroke: none; stroke-width: 1; stroke-dasharray: none; stroke-linecap: butt; stroke-dashoffset: 0; stroke-linejoin: miter; stroke-miterlimit: 4; fill: rgb(0,173,181); fill-rule: nonzero; opacity: 1;" vector-effect="non-scaling-stroke"  transform=" translate(-51.25, -47.5)" d="M 68.539 12.503 L 27.504 12.503 L 33.004000000000005 17.503 L 65.004 17.503 L 65.004 27.503 L 75.004 27.503 L 75.004 77.503 L 27.504000000000005 77.503 L 27.504000000000005 47.503 L 22.504000000000005 42.503 L 22.504000000000005 82.503 L 80.004 82.503 L 80.004 23.967 L 68.539 12.503 z M 70.004 22.502 L 70.004 21.037 L 71.46900000000001 22.502 L 70.004 22.502 z" stroke-linecap="round" />
</g>
</g>
</g>
</svg>